<svg
  width="99"
  height="33"
  viewBox="0 0 99 33"
  fill="none"
  xmlns="http://www.w3.org/2000/svg"
>
  <path
    d="M29.6807 14.4434L25.0078 28H22.1826L28.0693 12.3594H29.874L29.6807 14.4434ZM33.5908 28L28.9072 14.4434L28.7031 12.3594H30.5186L36.4268 28H33.5908ZM33.3652 22.1992V24.3369H24.8574V22.1992H33.3652ZM44.4404 24.8525C44.4404 24.5947 44.376 24.362 44.2471 24.1543C44.1182 23.9395 43.8711 23.7461 43.5059 23.5742C43.1478 23.4023 42.6178 23.2448 41.916 23.1016C41.3001 22.9655 40.7344 22.8044 40.2188 22.6182C39.7103 22.4248 39.2734 22.1921 38.9082 21.9199C38.543 21.6478 38.2601 21.3255 38.0596 20.9531C37.859 20.5807 37.7588 20.151 37.7588 19.6641C37.7588 19.1914 37.8626 18.7438 38.0703 18.3213C38.278 17.8988 38.5752 17.5264 38.9619 17.2041C39.3486 16.8818 39.8177 16.6276 40.3691 16.4414C40.9277 16.2552 41.5508 16.1621 42.2383 16.1621C43.2122 16.1621 44.0465 16.3268 44.7412 16.6562C45.443 16.9785 45.9801 17.4189 46.3525 17.9775C46.7249 18.529 46.9111 19.152 46.9111 19.8467H44.3223C44.3223 19.5387 44.2435 19.2523 44.0859 18.9873C43.9355 18.7152 43.7064 18.4967 43.3984 18.332C43.0905 18.1602 42.7038 18.0742 42.2383 18.0742C41.7943 18.0742 41.4255 18.1458 41.1318 18.2891C40.8454 18.4251 40.6305 18.6042 40.4873 18.8262C40.3512 19.0482 40.2832 19.2917 40.2832 19.5566C40.2832 19.75 40.319 19.9255 40.3906 20.083C40.4694 20.2334 40.5983 20.373 40.7773 20.502C40.9564 20.6237 41.1999 20.7383 41.5078 20.8457C41.8229 20.9531 42.2168 21.057 42.6895 21.1572C43.5775 21.3434 44.3402 21.5833 44.9775 21.877C45.6221 22.1634 46.1162 22.5358 46.46 22.9941C46.8037 23.4453 46.9756 24.0182 46.9756 24.7129C46.9756 25.2285 46.8646 25.7012 46.6426 26.1309C46.4277 26.5534 46.1126 26.9222 45.6973 27.2373C45.2819 27.5452 44.7842 27.7852 44.2041 27.957C43.6312 28.1289 42.9867 28.2148 42.2705 28.2148C41.2178 28.2148 40.3262 28.0286 39.5957 27.6562C38.8652 27.2767 38.3102 26.7933 37.9307 26.2061C37.5583 25.6117 37.3721 24.9958 37.3721 24.3584H39.875C39.9036 24.8382 40.0361 25.2214 40.2725 25.5078C40.516 25.7871 40.8167 25.9912 41.1748 26.1201C41.54 26.2419 41.916 26.3027 42.3027 26.3027C42.7682 26.3027 43.1585 26.2419 43.4736 26.1201C43.7887 25.9912 44.0286 25.8193 44.1934 25.6045C44.3581 25.3825 44.4404 25.1318 44.4404 24.8525ZM51.8525 11.5V28H49.2529V11.5H51.8525ZM59.0713 16.377L54.0117 21.9844L51.2402 24.8203L50.5635 22.6289L52.6582 20.04L55.9453 16.377H59.0713ZM56.5039 28L52.7334 22.543L54.3662 20.7275L59.501 28H56.5039Z"
    fill="#007FE1"
  />
  <path
    d="M67.0635 14.4434L62.3906 28H59.5654L65.4521 12.3594H67.2568L67.0635 14.4434ZM70.9736 28L66.29 14.4434L66.0859 12.3594H67.9014L73.8096 28H70.9736ZM70.748 22.1992V24.3369H62.2402V22.1992H70.748ZM77.709 18.6113V32.4688H75.1201V16.377H77.5049L77.709 18.6113ZM85.2822 22.0811V22.3066C85.2822 23.1517 85.182 23.9359 84.9814 24.6592C84.7881 25.3753 84.498 26.002 84.1113 26.5391C83.7318 27.069 83.2627 27.4808 82.7041 27.7744C82.1455 28.068 81.501 28.2148 80.7705 28.2148C80.0472 28.2148 79.4134 28.0824 78.8691 27.8174C78.332 27.5452 77.8773 27.1621 77.5049 26.668C77.1325 26.1738 76.8317 25.5938 76.6025 24.9277C76.3805 24.2546 76.223 23.5169 76.1299 22.7148V21.8447C76.223 20.9925 76.3805 20.2191 76.6025 19.5244C76.8317 18.8298 77.1325 18.2318 77.5049 17.7305C77.8773 17.2292 78.332 16.8424 78.8691 16.5703C79.4062 16.2982 80.0329 16.1621 80.749 16.1621C81.4795 16.1621 82.1276 16.3053 82.6934 16.5918C83.2591 16.8711 83.7354 17.2721 84.1221 17.7949C84.5088 18.3105 84.7988 18.9336 84.9922 19.6641C85.1855 20.3874 85.2822 21.193 85.2822 22.0811ZM82.6934 22.3066V22.0811C82.6934 21.5439 82.6432 21.0462 82.543 20.5879C82.4427 20.1224 82.2852 19.7142 82.0703 19.3633C81.8555 19.0124 81.5798 18.7402 81.2432 18.5469C80.9137 18.3464 80.5163 18.2461 80.0508 18.2461C79.5924 18.2461 79.1986 18.3249 78.8691 18.4824C78.5397 18.6328 78.264 18.8441 78.042 19.1162C77.82 19.3883 77.6481 19.707 77.5264 20.0723C77.4046 20.4303 77.3187 20.8206 77.2686 21.2432V23.3271C77.3545 23.8428 77.5013 24.3154 77.709 24.7451C77.9167 25.1748 78.2103 25.5186 78.5898 25.7764C78.9766 26.027 79.4707 26.1523 80.0723 26.1523C80.5378 26.1523 80.9352 26.0521 81.2646 25.8516C81.5941 25.651 81.8626 25.3753 82.0703 25.0244C82.2852 24.6663 82.4427 24.2546 82.543 23.7891C82.6432 23.3236 82.6934 22.8294 82.6934 22.3066ZM90.084 18.6113V32.4688H87.4951V16.377H89.8799L90.084 18.6113ZM97.6572 22.0811V22.3066C97.6572 23.1517 97.557 23.9359 97.3564 24.6592C97.1631 25.3753 96.873 26.002 96.4863 26.5391C96.1068 27.069 95.6377 27.4808 95.0791 27.7744C94.5205 28.068 93.876 28.2148 93.1455 28.2148C92.4222 28.2148 91.7884 28.0824 91.2441 27.8174C90.707 27.5452 90.2523 27.1621 89.8799 26.668C89.5075 26.1738 89.2067 25.5938 88.9775 24.9277C88.7555 24.2546 88.598 23.5169 88.5049 22.7148V21.8447C88.598 20.9925 88.7555 20.2191 88.9775 19.5244C89.2067 18.8298 89.5075 18.2318 89.8799 17.7305C90.2523 17.2292 90.707 16.8424 91.2441 16.5703C91.7812 16.2982 92.4079 16.1621 93.124 16.1621C93.8545 16.1621 94.5026 16.3053 95.0684 16.5918C95.6341 16.8711 96.1104 17.2721 96.4971 17.7949C96.8838 18.3105 97.1738 18.9336 97.3672 19.6641C97.5605 20.3874 97.6572 21.193 97.6572 22.0811ZM95.0684 22.3066V22.0811C95.0684 21.5439 95.0182 21.0462 94.918 20.5879C94.8177 20.1224 94.6602 19.7142 94.4453 19.3633C94.2305 19.0124 93.9548 18.7402 93.6182 18.5469C93.2887 18.3464 92.8913 18.2461 92.4258 18.2461C91.9674 18.2461 91.5736 18.3249 91.2441 18.4824C90.9147 18.6328 90.639 18.8441 90.417 19.1162C90.195 19.3883 90.0231 19.707 89.9014 20.0723C89.7796 20.4303 89.6937 20.8206 89.6436 21.2432V23.3271C89.7295 23.8428 89.8763 24.3154 90.084 24.7451C90.2917 25.1748 90.5853 25.5186 90.9648 25.7764C91.3516 26.027 91.8457 26.1523 92.4473 26.1523C92.9128 26.1523 93.3102 26.0521 93.6396 25.8516C93.9691 25.651 94.2376 25.3753 94.4453 25.0244C94.6602 24.6663 94.8177 24.2546 94.918 23.7891C95.0182 23.3236 95.0684 22.8294 95.0684 22.3066Z"
    fill="#CCCCCC"
  />
  <path
    d="M18.3333 15.7392L17.2608 14.6667H3.66667V3.66668H18.3333V15.7392ZM18.3333 1.83334H3.66667C2.65833 1.83334 1.83333 2.65834 1.83333 3.66668V14.6667C1.83333 15.675 2.65833 16.5 3.66667 16.5H16.5L20.1667 20.1667V3.66668C20.1667 2.65834 19.3417 1.83334 18.3333 1.83334Z"
    fill="#999999"
  />
</svg>
